<svg xmlns="http://www.w3.org/2000/svg" xmlns:xlink="http://www.w3.org/1999/xlink" width="2000" zoomAndPan="magnify" viewBox="0 0 1500 1499.999933" height="2000" preserveAspectRatio="xMidYMid meet" version="1.0"><defs><g/><clipPath id="8ee98bf169"><path d="M 158 491.339844 L 430 491.339844 L 430 1008.835938 L 158 1008.835938 Z M 158 491.339844 " clip-rule="nonzero"/></clipPath><clipPath id="b77bfbb104"><path d="M 404 840 L 445.882812 840 L 445.882812 964 L 404 964 Z M 404 840 " clip-rule="nonzero"/></clipPath><clipPath id="9d353b534c"><rect x="0" width="795" y="0" height="232"/></clipPath><clipPath id="cf23e75f0a"><rect x="0" width="618" y="0" height="232"/></clipPath></defs><g clip-path="url(#8ee98bf169)"><path fill="#ffffff" d="M 429.042969 601.675781 L 429.042969 828.984375 C 429.042969 828.984375 402.253906 823.949219 396.734375 853.988281 C 396.734375 853.988281 379.847656 817.617188 354.84375 794.726562 C 329.839844 771.832031 282.59375 729.457031 238.105469 709.972656 L 268.792969 747.964844 C 268.792969 747.964844 239.402344 783.683594 242.8125 821.839844 C 246.222656 859.832031 307.269531 893.28125 333.574219 908.867188 C 359.875 924.453125 423.359375 963.09375 429.042969 978.683594 C 429.042969 978.683594 346.074219 954.976562 281.457031 965.367188 C 216.835938 975.761719 176.570312 1008.558594 176.570312 1008.558594 C 176.570312 1008.558594 187.445312 930.785156 217.484375 899.613281 C 217.484375 899.613281 167.640625 806.738281 228.199219 707.375 C 228.199219 707.375 168.125 667.109375 172.347656 614.015625 C 172.347656 614.015625 200.4375 666.78125 248.820312 686.265625 C 248.820312 686.265625 145.882812 610.929688 159.195312 491.429688 L 223.816406 562.871094 C 223.816406 562.871094 279.667969 574.398438 296.394531 607.195312 C 313.117188 639.992188 351.757812 686.265625 351.757812 686.265625 L 320.097656 617.101562 C 320.097656 617.261719 366.207031 592.582031 429.042969 601.675781 Z M 429.042969 601.675781 " fill-opacity="1" fill-rule="nonzero"/></g><path fill="#ffffff" d="M 381.796875 850.902344 L 369.617188 832.230469 C 369.617188 832.230469 342.015625 849.605469 320.261719 827.523438 C 298.503906 805.441406 312.464844 773.941406 312.464844 773.941406 L 296.394531 762.089844 C 296.394531 762.089844 279.019531 792.289062 294.605469 826.0625 C 308.894531 856.421875 344.289062 864.703125 381.796875 850.902344 Z M 381.796875 850.902344 " fill-opacity="1" fill-rule="nonzero"/><g clip-path="url(#b77bfbb104)"><path fill="#ffffff" d="M 426.769531 841.160156 C 426.28125 841 425.796875 841 425.308594 841 C 413.292969 839.863281 407.285156 853.011719 405.824219 862.917969 C 400.628906 897.015625 407.613281 934.84375 426.609375 963.582031 C 429.855469 958.386719 432.128906 953.027344 434.078125 947.347656 C 435.699219 942.476562 439.109375 934.84375 438.949219 929.648438 C 442.195312 917.796875 444.304688 905.617188 444.953125 893.28125 C 445.765625 879.804688 445.929688 862.753906 438.949219 850.742188 C 436.351562 846.195312 431.964844 842.296875 426.769531 841.160156 Z M 426.769531 841.160156 " fill-opacity="1" fill-rule="nonzero"/></g><g transform="matrix(1, 0, 0, 1, 456, 782)"><g clip-path="url(#9d353b534c)"><g fill="#46b8b0" fill-opacity="0.4"><g transform="translate(0.940892, 163.747819)"><g><path d="M 137.953125 0 L 130.703125 -90.921875 L 129.78125 -90.921875 L 98.359375 -0.921875 L 77.53125 -0.921875 L 46.109375 -90.921875 L 45.171875 -90.921875 L 37.921875 0 L 2.96875 0 L 16.734375 -153.390625 L 53.921875 -153.390625 L 87.9375 -64.890625 L 121.96875 -153.390625 L 159.15625 -153.390625 L 172.90625 0 Z M 137.953125 0 "/></g></g></g><g fill="#46b8b0" fill-opacity="0.4"><g transform="translate(176.813504, 163.747819)"><g><path d="M 52.609375 -123.453125 L 90.359375 -156.171875 L 107.28125 -134.796875 L 63.03125 -109.140625 Z M 17.65625 -83.484375 C 8.738281 -73.691406 4.28125 -61.726562 4.28125 -47.59375 C 4.28125 -33.46875 8.738281 -21.539062 17.65625 -11.8125 C 26.582031 -2.082031 37.925781 2.78125 51.6875 2.78125 C 64.332031 2.78125 74.742188 -1.738281 82.921875 -10.78125 L 83.296875 -10.78125 L 83.296875 0 L 115.828125 0 L 115.828125 -95.375 L 82.921875 -95.375 L 82.921875 -86.265625 C 74.742188 -94.203125 64.332031 -98.171875 51.6875 -98.171875 C 37.925781 -98.171875 26.582031 -93.273438 17.65625 -83.484375 Z M 45.359375 -31.5 C 41.273438 -35.65625 39.234375 -41.019531 39.234375 -47.59375 C 39.234375 -54.164062 41.367188 -59.554688 45.640625 -63.765625 C 49.921875 -67.984375 55.222656 -70.09375 61.546875 -70.09375 C 67.742188 -70.09375 72.976562 -67.984375 77.25 -63.765625 C 81.53125 -59.554688 83.671875 -54.164062 83.671875 -47.59375 C 83.671875 -41.144531 81.59375 -35.8125 77.4375 -31.59375 C 73.28125 -27.382812 67.984375 -25.28125 61.546875 -25.28125 C 54.847656 -25.28125 49.453125 -27.351562 45.359375 -31.5 Z M 45.359375 -31.5 "/></g></g></g><g fill="#46b8b0" fill-opacity="0.4"><g transform="translate(303.791312, 163.747819)"><g><path d="M 121.59375 0 L 81.8125 0 L 60.796875 -26.953125 L 39.78125 0 L 0 0 L 40.71875 -49.828125 L 5.765625 -95.375 L 44.25 -95.375 L 60.796875 -73.25 L 77.34375 -95.375 L 115.828125 -95.375 L 80.875 -49.828125 Z M 121.59375 0 "/></g></g></g><g fill="#46b8b0" fill-opacity="0.4"><g transform="translate(425.377633, 163.747819)"><g><path d="M 14.3125 -148.546875 C 18.15625 -152.390625 22.738281 -154.3125 28.0625 -154.3125 C 33.394531 -154.3125 37.984375 -152.390625 41.828125 -148.546875 C 45.671875 -144.703125 47.59375 -140.113281 47.59375 -134.78125 C 47.59375 -129.457031 45.671875 -124.875 41.828125 -121.03125 C 37.984375 -117.1875 33.394531 -115.265625 28.0625 -115.265625 C 22.738281 -115.265625 18.15625 -117.1875 14.3125 -121.03125 C 10.46875 -124.875 8.546875 -129.457031 8.546875 -134.78125 C 8.546875 -140.113281 10.46875 -144.703125 14.3125 -148.546875 Z M 11.15625 -95.375 L 11.15625 0 L 44.0625 0 L 44.0625 -95.375 Z M 11.15625 -95.375 "/></g></g></g><g fill="#46b8b0" fill-opacity="0.4"><g transform="translate(481.52299, 163.747819)"><g><path d="M 11.15625 0 L 11.15625 -95.375 L 44.0625 -95.375 L 44.0625 -85.34375 L 44.4375 -85.34375 C 52.988281 -93.894531 62.097656 -98.171875 71.765625 -98.171875 C 78.703125 -98.171875 85.207031 -96.742188 91.28125 -93.890625 C 97.351562 -91.035156 101.941406 -86.632812 105.046875 -80.6875 C 114.710938 -92.34375 125.25 -98.171875 136.65625 -98.171875 C 146.8125 -98.171875 155.546875 -95.316406 162.859375 -89.609375 C 170.179688 -83.910156 173.84375 -74.988281 173.84375 -62.84375 L 173.84375 0 L 140.921875 0 L 140.921875 -53.921875 C 140.921875 -59.003906 139.523438 -63.25 136.734375 -66.65625 C 133.953125 -70.0625 129.773438 -71.765625 124.203125 -71.765625 C 119.359375 -71.765625 115.664062 -70.304688 113.125 -67.390625 C 110.59375 -64.484375 109.203125 -60.984375 108.953125 -56.890625 L 108.953125 0 L 76.046875 0 L 76.046875 -53.921875 C 76.046875 -59.003906 74.648438 -63.25 71.859375 -66.65625 C 69.066406 -70.0625 64.882812 -71.765625 59.3125 -71.765625 C 54.226562 -71.765625 50.414062 -70.179688 47.875 -67.015625 C 45.332031 -63.859375 44.0625 -60.113281 44.0625 -55.78125 L 44.0625 0 Z M 11.15625 0 "/></g></g></g><g fill="#46b8b0" fill-opacity="0.4"><g transform="translate(664.646151, 163.747819)"><g><path d="M 17.65625 -11.8125 C 8.738281 -21.539062 4.28125 -33.46875 4.28125 -47.59375 C 4.28125 -61.726562 8.738281 -73.691406 17.65625 -83.484375 C 26.582031 -93.273438 37.925781 -98.171875 51.6875 -98.171875 C 64.332031 -98.171875 74.742188 -94.203125 82.921875 -86.265625 L 82.921875 -95.375 L 115.828125 -95.375 L 115.828125 0 L 83.296875 0 L 83.296875 -10.78125 L 82.921875 -10.78125 C 74.742188 -1.738281 64.332031 2.78125 51.6875 2.78125 C 37.925781 2.78125 26.582031 -2.082031 17.65625 -11.8125 Z M 45.640625 -63.765625 C 41.367188 -59.554688 39.234375 -54.164062 39.234375 -47.59375 C 39.234375 -41.019531 41.273438 -35.65625 45.359375 -31.5 C 49.453125 -27.351562 54.847656 -25.28125 61.546875 -25.28125 C 67.984375 -25.28125 73.28125 -27.382812 77.4375 -31.59375 C 81.59375 -35.8125 83.671875 -41.144531 83.671875 -47.59375 C 83.671875 -54.164062 81.53125 -59.554688 77.25 -63.765625 C 72.976562 -67.984375 67.742188 -70.09375 61.546875 -70.09375 C 55.222656 -70.09375 49.921875 -67.984375 45.640625 -63.765625 Z M 45.640625 -63.765625 "/></g></g></g><g fill="#ffffff" fill-opacity="1"><g transform="translate(0.940892, 163.747819)"><g><path d="M 137.953125 0 L 130.703125 -90.921875 L 129.78125 -90.921875 L 98.359375 -0.921875 L 77.53125 -0.921875 L 46.109375 -90.921875 L 45.171875 -90.921875 L 37.921875 0 L 2.96875 0 L 16.734375 -153.390625 L 53.921875 -153.390625 L 87.9375 -64.890625 L 121.96875 -153.390625 L 159.15625 -153.390625 L 172.90625 0 Z M 137.953125 0 "/></g></g></g><g fill="#ffffff" fill-opacity="1"><g transform="translate(176.813504, 163.747819)"><g><path d="M 52.609375 -123.453125 L 90.359375 -156.171875 L 107.28125 -134.796875 L 63.03125 -109.140625 Z M 17.65625 -83.484375 C 8.738281 -73.691406 4.28125 -61.726562 4.28125 -47.59375 C 4.28125 -33.46875 8.738281 -21.539062 17.65625 -11.8125 C 26.582031 -2.082031 37.925781 2.78125 51.6875 2.78125 C 64.332031 2.78125 74.742188 -1.738281 82.921875 -10.78125 L 83.296875 -10.78125 L 83.296875 0 L 115.828125 0 L 115.828125 -95.375 L 82.921875 -95.375 L 82.921875 -86.265625 C 74.742188 -94.203125 64.332031 -98.171875 51.6875 -98.171875 C 37.925781 -98.171875 26.582031 -93.273438 17.65625 -83.484375 Z M 45.359375 -31.5 C 41.273438 -35.65625 39.234375 -41.019531 39.234375 -47.59375 C 39.234375 -54.164062 41.367188 -59.554688 45.640625 -63.765625 C 49.921875 -67.984375 55.222656 -70.09375 61.546875 -70.09375 C 67.742188 -70.09375 72.976562 -67.984375 77.25 -63.765625 C 81.53125 -59.554688 83.671875 -54.164062 83.671875 -47.59375 C 83.671875 -41.144531 81.59375 -35.8125 77.4375 -31.59375 C 73.28125 -27.382812 67.984375 -25.28125 61.546875 -25.28125 C 54.847656 -25.28125 49.453125 -27.351562 45.359375 -31.5 Z M 45.359375 -31.5 "/></g></g></g><g fill="#ffffff" fill-opacity="1"><g transform="translate(303.791312, 163.747819)"><g><path d="M 121.59375 0 L 81.8125 0 L 60.796875 -26.953125 L 39.78125 0 L 0 0 L 40.71875 -49.828125 L 5.765625 -95.375 L 44.25 -95.375 L 60.796875 -73.25 L 77.34375 -95.375 L 115.828125 -95.375 L 80.875 -49.828125 Z M 121.59375 0 "/></g></g></g><g fill="#ffffff" fill-opacity="1"><g transform="translate(425.377633, 163.747819)"><g><path d="M 14.3125 -148.546875 C 18.15625 -152.390625 22.738281 -154.3125 28.0625 -154.3125 C 33.394531 -154.3125 37.984375 -152.390625 41.828125 -148.546875 C 45.671875 -144.703125 47.59375 -140.113281 47.59375 -134.78125 C 47.59375 -129.457031 45.671875 -124.875 41.828125 -121.03125 C 37.984375 -117.1875 33.394531 -115.265625 28.0625 -115.265625 C 22.738281 -115.265625 18.15625 -117.1875 14.3125 -121.03125 C 10.46875 -124.875 8.546875 -129.457031 8.546875 -134.78125 C 8.546875 -140.113281 10.46875 -144.703125 14.3125 -148.546875 Z M 11.15625 -95.375 L 11.15625 0 L 44.0625 0 L 44.0625 -95.375 Z M 11.15625 -95.375 "/></g></g></g><g fill="#ffffff" fill-opacity="1"><g transform="translate(481.52299, 163.747819)"><g><path d="M 11.15625 0 L 11.15625 -95.375 L 44.0625 -95.375 L 44.0625 -85.34375 L 44.4375 -85.34375 C 52.988281 -93.894531 62.097656 -98.171875 71.765625 -98.171875 C 78.703125 -98.171875 85.207031 -96.742188 91.28125 -93.890625 C 97.351562 -91.035156 101.941406 -86.632812 105.046875 -80.6875 C 114.710938 -92.34375 125.25 -98.171875 136.65625 -98.171875 C 146.8125 -98.171875 155.546875 -95.316406 162.859375 -89.609375 C 170.179688 -83.910156 173.84375 -74.988281 173.84375 -62.84375 L 173.84375 0 L 140.921875 0 L 140.921875 -53.921875 C 140.921875 -59.003906 139.523438 -63.25 136.734375 -66.65625 C 133.953125 -70.0625 129.773438 -71.765625 124.203125 -71.765625 C 119.359375 -71.765625 115.664062 -70.304688 113.125 -67.390625 C 110.59375 -64.484375 109.203125 -60.984375 108.953125 -56.890625 L 108.953125 0 L 76.046875 0 L 76.046875 -53.921875 C 76.046875 -59.003906 74.648438 -63.25 71.859375 -66.65625 C 69.066406 -70.0625 64.882812 -71.765625 59.3125 -71.765625 C 54.226562 -71.765625 50.414062 -70.179688 47.875 -67.015625 C 45.332031 -63.859375 44.0625 -60.113281 44.0625 -55.78125 L 44.0625 0 Z M 11.15625 0 "/></g></g></g><g fill="#ffffff" fill-opacity="1"><g transform="translate(664.646151, 163.747819)"><g><path d="M 17.65625 -11.8125 C 8.738281 -21.539062 4.28125 -33.46875 4.28125 -47.59375 C 4.28125 -61.726562 8.738281 -73.691406 17.65625 -83.484375 C 26.582031 -93.273438 37.925781 -98.171875 51.6875 -98.171875 C 64.332031 -98.171875 74.742188 -94.203125 82.921875 -86.265625 L 82.921875 -95.375 L 115.828125 -95.375 L 115.828125 0 L 83.296875 0 L 83.296875 -10.78125 L 82.921875 -10.78125 C 74.742188 -1.738281 64.332031 2.78125 51.6875 2.78125 C 37.925781 2.78125 26.582031 -2.082031 17.65625 -11.8125 Z M 45.640625 -63.765625 C 41.367188 -59.554688 39.234375 -54.164062 39.234375 -47.59375 C 39.234375 -41.019531 41.273438 -35.65625 45.359375 -31.5 C 49.453125 -27.351562 54.847656 -25.28125 61.546875 -25.28125 C 67.984375 -25.28125 73.28125 -27.382812 77.4375 -31.59375 C 81.59375 -35.8125 83.671875 -41.144531 83.671875 -47.59375 C 83.671875 -54.164062 81.53125 -59.554688 77.25 -63.765625 C 72.976562 -67.984375 67.742188 -70.09375 61.546875 -70.09375 C 55.222656 -70.09375 49.921875 -67.984375 45.640625 -63.765625 Z M 45.640625 -63.765625 "/></g></g></g></g></g><g transform="matrix(1, 0, 0, 1, 449, 602)"><g clip-path="url(#cf23e75f0a)"><g fill="#ffffff" fill-opacity="1"><g transform="translate(7.940892, 163.508713)"><g><path d="M 89.0625 -153.390625 L 150.96875 0 L 113.40625 0 L 102.078125 -30.671875 L 43.6875 -30.671875 L 32.34375 0 L -5.203125 0 L 56.703125 -153.390625 Z M 90.171875 -61.359375 L 73.0625 -105.96875 L 72.703125 -105.96875 L 55.59375 -61.359375 Z M 90.171875 -61.359375 "/></g></g></g><g fill="#ffffff" fill-opacity="1"><g transform="translate(153.695798, 163.508713)"><g><path d="M 11.15625 0 L 11.15625 -159.890625 L 44.0625 -159.890625 L 44.0625 0 Z M 11.15625 0 "/></g></g></g><g fill="#ffffff" fill-opacity="1"><g transform="translate(208.911593, 163.508713)"><g><path d="M 107.65625 -43.140625 L 38.484375 -43.140625 C 38.484375 -36.441406 40.648438 -31.476562 44.984375 -28.25 C 49.328125 -25.03125 54.039062 -23.421875 59.125 -23.421875 C 64.457031 -23.421875 68.671875 -24.132812 71.765625 -25.5625 C 74.859375 -26.988281 78.390625 -29.8125 82.359375 -34.03125 L 106.15625 -22.125 C 96.238281 -5.519531 79.753906 2.78125 56.703125 2.78125 C 42.328125 2.78125 29.992188 -2.140625 19.703125 -11.984375 C 9.421875 -21.835938 4.28125 -33.707031 4.28125 -47.59375 C 4.28125 -61.476562 9.421875 -73.378906 19.703125 -83.296875 C 29.992188 -93.210938 42.328125 -98.171875 56.703125 -98.171875 C 71.828125 -98.171875 84.128906 -93.800781 93.609375 -85.0625 C 103.085938 -76.320312 107.828125 -63.832031 107.828125 -47.59375 C 107.828125 -45.363281 107.769531 -43.878906 107.65625 -43.140625 Z M 39.421875 -61.359375 L 75.671875 -61.359375 C 74.921875 -66.316406 72.96875 -70.125 69.8125 -72.78125 C 66.65625 -75.445312 62.597656 -76.78125 57.640625 -76.78125 C 52.179688 -76.78125 47.835938 -75.351562 44.609375 -72.5 C 41.390625 -69.65625 39.660156 -65.941406 39.421875 -61.359375 Z M 39.421875 -61.359375 "/></g></g></g><g fill="#ffffff" fill-opacity="1"><g transform="translate(321.016427, 163.508713)"><g><path d="M 11.15625 0 L 11.15625 -95.375 L 44.0625 -95.375 L 44.0625 -81.625 L 44.4375 -81.625 C 44.6875 -82.113281 45.085938 -82.726562 45.640625 -83.46875 C 46.203125 -84.21875 47.410156 -85.519531 49.265625 -87.375 C 51.128906 -89.238281 53.113281 -90.914062 55.21875 -92.40625 C 57.320312 -93.894531 60.046875 -95.226562 63.390625 -96.40625 C 66.742188 -97.582031 70.15625 -98.171875 73.625 -98.171875 C 77.21875 -98.171875 80.75 -97.671875 84.21875 -96.671875 C 87.6875 -95.679688 90.226562 -94.691406 91.84375 -93.703125 L 94.453125 -92.21875 L 80.6875 -64.328125 C 76.59375 -67.796875 70.890625 -69.53125 63.578125 -69.53125 C 59.617188 -69.53125 56.210938 -68.660156 53.359375 -66.921875 C 50.503906 -65.191406 48.488281 -63.085938 47.3125 -60.609375 C 46.132812 -58.128906 45.296875 -56.019531 44.796875 -54.28125 C 44.304688 -52.550781 44.0625 -51.191406 44.0625 -50.203125 L 44.0625 0 Z M 11.15625 0 "/></g></g></g><g fill="#ffffff" fill-opacity="1"><g transform="translate(413.600538, 163.508713)"><g><path d="M 16.734375 -95.375 L 16.734375 -130.890625 L 49.640625 -130.890625 L 49.640625 -95.375 L 69.71875 -95.375 L 69.71875 -70.28125 L 49.640625 -70.28125 L 49.640625 -39.96875 C 49.640625 -31.164062 52.117188 -26.765625 57.078125 -26.765625 C 58.316406 -26.765625 59.617188 -27.015625 60.984375 -27.515625 C 62.347656 -28.015625 63.398438 -28.507812 64.140625 -29 L 65.265625 -29.75 L 73.4375 -3.15625 C 66.375 0.800781 58.316406 2.78125 49.265625 2.78125 C 43.066406 2.78125 37.738281 1.695312 33.28125 -0.46875 C 28.820312 -2.632812 25.441406 -5.546875 23.140625 -9.203125 C 20.847656 -12.859375 19.207031 -16.695312 18.21875 -20.71875 C 17.226562 -24.75 16.734375 -29.0625 16.734375 -33.65625 L 16.734375 -70.28125 L 2.96875 -70.28125 L 2.96875 -95.375 Z M 16.734375 -95.375 "/></g></g></g><g fill="#ffffff" fill-opacity="1"><g transform="translate(487.035737, 163.508713)"><g><path d="M 17.65625 -11.8125 C 8.738281 -21.539062 4.28125 -33.46875 4.28125 -47.59375 C 4.28125 -61.726562 8.738281 -73.691406 17.65625 -83.484375 C 26.582031 -93.273438 37.925781 -98.171875 51.6875 -98.171875 C 64.332031 -98.171875 74.742188 -94.203125 82.921875 -86.265625 L 82.921875 -95.375 L 115.828125 -95.375 L 115.828125 0 L 83.296875 0 L 83.296875 -10.78125 L 82.921875 -10.78125 C 74.742188 -1.738281 64.332031 2.78125 51.6875 2.78125 C 37.925781 2.78125 26.582031 -2.082031 17.65625 -11.8125 Z M 45.640625 -63.765625 C 41.367188 -59.554688 39.234375 -54.164062 39.234375 -47.59375 C 39.234375 -41.019531 41.273438 -35.65625 45.359375 -31.5 C 49.453125 -27.351562 54.847656 -25.28125 61.546875 -25.28125 C 67.984375 -25.28125 73.28125 -27.382812 77.4375 -31.59375 C 81.59375 -35.8125 83.671875 -41.144531 83.671875 -47.59375 C 83.671875 -54.164062 81.53125 -59.554688 77.25 -63.765625 C 72.976562 -67.984375 67.742188 -70.09375 61.546875 -70.09375 C 55.222656 -70.09375 49.921875 -67.984375 45.640625 -63.765625 Z M 45.640625 -63.765625 "/></g></g></g></g></g></svg>